<mxfile host="Electron" modified="2023-10-19T16:41:58.189Z" agent="Mozilla/5.0 (Windows NT 10.0; Win64; x64) AppleWebKit/537.36 (KHTML, like Gecko) draw.io/21.6.8 Chrome/114.0.5735.289 Electron/25.5.0 Safari/537.36" etag="aUmqnGUKHOY9cCB3rJue" version="21.6.8" type="device">
  <diagram name="Page-1" id="rDuffoHCRu6dvSiiGFJ7">
    <mxGraphModel dx="1810" dy="1684" grid="1" gridSize="10" guides="1" tooltips="1" connect="1" arrows="1" fold="1" page="1" pageScale="1" pageWidth="850" pageHeight="1100" math="0" shadow="0">
      <root>
        <mxCell id="0" />
        <mxCell id="1" parent="0" />
        <mxCell id="DpTQPlYq8bwajsbChGF8-1" value="&lt;font style=&quot;font-size: 16px;&quot;&gt;Customer Management System&lt;/font&gt;" style="rounded=1;whiteSpace=wrap;html=1;fillColor=#ffcccc;strokeColor=#36393d;" parent="1" vertex="1">
          <mxGeometry x="350" y="200" width="150" height="80" as="geometry" />
        </mxCell>
        <mxCell id="DpTQPlYq8bwajsbChGF8-4" value="&lt;font style=&quot;font-size: 16px;&quot;&gt;Security Management System&lt;/font&gt;" style="rounded=1;whiteSpace=wrap;html=1;fillColor=#ffcccc;strokeColor=#36393d;" parent="1" vertex="1">
          <mxGeometry x="680" y="200" width="150" height="80" as="geometry" />
        </mxCell>
        <mxCell id="DpTQPlYq8bwajsbChGF8-6" value="&lt;ul style=&quot;font-size: 16px;&quot;&gt;&lt;li&gt;Customer Registration and Account Management&lt;/li&gt;&lt;li&gt;Order History and Preferences&lt;/li&gt;&lt;li&gt;Notification and Communication&lt;/li&gt;&lt;/ul&gt;" style="text;html=1;strokeColor=none;fillColor=none;align=left;verticalAlign=middle;whiteSpace=wrap;rounded=0;" parent="1" vertex="1">
          <mxGeometry x="350" y="280" width="380" height="120" as="geometry" />
        </mxCell>
        <mxCell id="DpTQPlYq8bwajsbChGF8-9" value="&lt;font style=&quot;font-size: 22px;&quot;&gt;Collect Customer Feedbcks and Ratings&lt;/font&gt;" style="rounded=1;whiteSpace=wrap;html=1;fillColor=#dae8fc;strokeColor=#6c8ebf;" parent="1" vertex="1">
          <mxGeometry x="380" y="-60" width="450" height="60" as="geometry" />
        </mxCell>
        <mxCell id="DpTQPlYq8bwajsbChGF8-10" value="" style="endArrow=none;dashed=1;html=1;rounded=0;" parent="1" edge="1">
          <mxGeometry width="50" height="50" relative="1" as="geometry">
            <mxPoint x="-480" y="400" as="sourcePoint" />
            <mxPoint x="1550" y="400" as="targetPoint" />
          </mxGeometry>
        </mxCell>
        <mxCell id="DpTQPlYq8bwajsbChGF8-11" value="&lt;font style=&quot;font-size: 15px;&quot;&gt;Feedback and Review Subsystem&lt;/font&gt;" style="rounded=1;whiteSpace=wrap;html=1;fillColor=#ffcccc;strokeColor=#36393d;align=center;" parent="1" vertex="1">
          <mxGeometry x="370" y="450" width="270" height="80" as="geometry" />
        </mxCell>
        <mxCell id="DpTQPlYq8bwajsbChGF8-12" value="&lt;font style=&quot;font-size: 15px;&quot;&gt;Loyalty and Rewards Subsystem&lt;/font&gt;" style="rounded=1;whiteSpace=wrap;html=1;fillColor=#ffcccc;strokeColor=#36393d;" parent="1" vertex="1">
          <mxGeometry x="370" y="540" width="270" height="80" as="geometry" />
        </mxCell>
        <mxCell id="DpTQPlYq8bwajsbChGF8-13" value="" style="endArrow=none;html=1;rounded=0;entryX=0;entryY=0.5;entryDx=0;entryDy=0;exitX=0.004;exitY=0.638;exitDx=0;exitDy=0;exitPerimeter=0;" parent="1" source="DpTQPlYq8bwajsbChGF8-11" target="DpTQPlYq8bwajsbChGF8-1" edge="1">
          <mxGeometry width="50" height="50" relative="1" as="geometry">
            <mxPoint x="-430" y="430" as="sourcePoint" />
            <mxPoint x="-380" y="380" as="targetPoint" />
            <Array as="points">
              <mxPoint x="280" y="501" />
              <mxPoint x="280" y="450" />
              <mxPoint x="280" y="240" />
            </Array>
          </mxGeometry>
        </mxCell>
        <mxCell id="DpTQPlYq8bwajsbChGF8-14" value="" style="endArrow=none;html=1;rounded=0;exitX=0;exitY=0.5;exitDx=0;exitDy=0;" parent="1" source="DpTQPlYq8bwajsbChGF8-12" edge="1">
          <mxGeometry width="50" height="50" relative="1" as="geometry">
            <mxPoint x="-430" y="640" as="sourcePoint" />
            <mxPoint x="280" y="500" as="targetPoint" />
            <Array as="points">
              <mxPoint x="280" y="580" />
              <mxPoint x="280" y="540" />
            </Array>
          </mxGeometry>
        </mxCell>
        <mxCell id="DpTQPlYq8bwajsbChGF8-27" value="" style="endArrow=classic;html=1;rounded=0;entryX=0.5;entryY=0;entryDx=0;entryDy=0;" parent="1" source="DpTQPlYq8bwajsbChGF8-9" target="DpTQPlYq8bwajsbChGF8-4" edge="1">
          <mxGeometry width="50" height="50" relative="1" as="geometry">
            <mxPoint x="650" y="310" as="sourcePoint" />
            <mxPoint x="700" y="260" as="targetPoint" />
          </mxGeometry>
        </mxCell>
        <mxCell id="DpTQPlYq8bwajsbChGF8-31" value="" style="endArrow=classic;html=1;rounded=0;exitX=0.25;exitY=1;exitDx=0;exitDy=0;entryX=0.5;entryY=0;entryDx=0;entryDy=0;" parent="1" source="DpTQPlYq8bwajsbChGF8-9" target="DpTQPlYq8bwajsbChGF8-1" edge="1">
          <mxGeometry width="50" height="50" relative="1" as="geometry">
            <mxPoint x="150" y="300" as="sourcePoint" />
            <mxPoint x="200" y="250" as="targetPoint" />
          </mxGeometry>
        </mxCell>
        <mxCell id="DpTQPlYq8bwajsbChGF8-32" value="&lt;font style=&quot;font-size: 15px;&quot;&gt;Level 1&lt;/font&gt;" style="text;html=1;strokeColor=none;fillColor=none;align=center;verticalAlign=middle;whiteSpace=wrap;rounded=0;" parent="1" vertex="1">
          <mxGeometry x="-500" y="270" width="60" height="30" as="geometry" />
        </mxCell>
        <mxCell id="DpTQPlYq8bwajsbChGF8-33" value="&lt;font style=&quot;font-size: 15px;&quot;&gt;Level 2&lt;/font&gt;" style="text;html=1;strokeColor=none;fillColor=none;align=center;verticalAlign=middle;whiteSpace=wrap;rounded=0;" parent="1" vertex="1">
          <mxGeometry x="-500" y="470" width="60" height="30" as="geometry" />
        </mxCell>
        <mxCell id="DpTQPlYq8bwajsbChGF8-36" value="" style="swimlane;startSize=0;" parent="1" vertex="1">
          <mxGeometry x="160" y="-120" width="760" height="800" as="geometry" />
        </mxCell>
      </root>
    </mxGraphModel>
  </diagram>
</mxfile>
